<?xml version="1.0" standalone="no"?>
<!DOCTYPE svg PUBLIC "-//W3C//DTD SVG 20010904//EN"
 "http://www.w3.org/TR/2001/REC-SVG-20010904/DTD/svg10.dtd">
<svg version="1.0" xmlns="http://www.w3.org/2000/svg"
 width="1024.000000pt" height="1024.000000pt" viewBox="0 0 1024.000000 1024.000000"
 preserveAspectRatio="xMidYMid meet">
<metadata>
Created by potrace 1.14, written by Peter Selinger 2001-2017
</metadata>
<g transform="translate(0.000000,1024.000000) scale(0.100000,-0.100000)"
fill="#000000" stroke="none">
<path d="M8125 8918 c-187 -15 -212 -17 -247 -23 -21 -3 -55 -7 -75 -10 -280
-39 -679 -156 -933 -272 -740 -339 -1341 -865 -1753 -1534 -62 -101 -65 -108
-49 -125 62 -69 190 -225 258 -314 94 -124 284 -409 284 -425 0 -3 11 -22 24
-43 33 -52 157 -300 196 -392 18 -41 38 -88 45 -105 30 -68 107 -288 142 -408
l38 -128 55 6 c30 3 73 8 95 11 22 2 51 6 65 9 14 3 41 7 60 10 163 27 453
102 615 160 677 243 1218 639 1734 1270 44 55 227 317 257 370 6 11 36 63 66
115 216 377 384 879 433 1290 3 25 8 63 10 85 11 82 15 144 22 302 l6 161
-634 -1 c-349 -1 -670 -5 -714 -9z"/>
<path d="M773 7663 c4 -98 9 -189 11 -203 2 -14 7 -52 10 -85 4 -33 8 -71 10
-85 3 -14 7 -47 11 -75 3 -27 8 -59 10 -70 3 -11 7 -31 9 -45 157 -892 687
-1726 1481 -2333 66 -50 106 -77 114 -77 5 0 11 -4 13 -8 10 -24 301 -198 468
-279 349 -170 759 -292 1140 -338 25 -3 61 -8 80 -10 60 -8 190 -17 300 -20
58 -2 114 -4 125 -4 20 -1 20 -7 21 -1253 l0 -1253 23 -51 c27 -62 81 -116
141 -142 42 -18 71 -19 390 -17 331 1 347 2 385 22 59 32 95 70 123 132 l26
56 0 1285 c0 1149 -5 1557 -19 1629 -2 12 -7 50 -10 84 -13 132 -62 391 -96
512 -11 38 -22 79 -24 89 -16 71 -102 308 -163 446 -114 261 -263 513 -441
745 -222 291 -512 577 -818 806 -290 217 -652 408 -998 524 -84 28 -308 91
-350 99 -16 2 -75 14 -130 25 -100 20 -149 28 -221 36 -22 3 -59 7 -84 10 -25
4 -67 9 -95 12 -27 2 -365 7 -749 10 l-699 5 6 -179z"/>
</g>
</svg>
